<svg width="56" height="79" viewBox="0 0 56 79" fill="none" xmlns="http://www.w3.org/2000/svg">
<circle cx="28" cy="28" r="22" fill="#C4C4C4" fill-opacity="0.4"/>
<path d="M2.62338 16.1667C0.0383901 21.7102 -0.660256 27.9477 0.634237 33.9258C1.92873 39.9039 5.14514 45.2936 9.79184 49.2712C14.4385 53.2488 20.2599 55.5954 26.3661 55.9523C32.4723 56.3092 38.5274 54.6568 43.6059 51.2477C48.6843 47.8386 52.5068 42.8603 54.489 37.0738C56.4712 31.2873 56.504 25.0109 54.5825 19.2039C52.661 13.3969 48.8908 8.37892 43.8483 4.91685C38.8058 1.45478 32.7683 -0.260865 26.6587 0.0321455L26.864 4.31213C32.0386 4.06396 37.1521 5.51706 41.423 8.44932C45.6938 11.3816 48.8871 15.6317 50.5145 20.55C52.142 25.4683 52.1142 30.7842 50.4353 35.6852C48.7565 40.5862 45.519 44.8027 41.2177 47.6901C36.9163 50.5775 31.7879 51.977 26.6161 51.6747C21.4444 51.3724 16.5139 49.3849 12.5783 46.016C8.64267 42.6471 5.91847 38.0822 4.82208 33.019C3.72569 27.9557 4.31742 22.6728 6.50682 17.9776L2.62338 16.1667Z" fill="#3B5999"/>
<path d="M17.4946 75.14C16.7386 75.14 16.006 75.0327 15.2966 74.818C14.5966 74.6033 14.0413 74.3187 13.6306 73.964L14.2606 72.55C14.662 72.8673 15.152 73.1287 15.7306 73.334C16.3186 73.53 16.9066 73.628 17.4946 73.628C18.2226 73.628 18.764 73.5113 19.1186 73.278C19.4826 73.0447 19.6646 72.7367 19.6646 72.354C19.6646 72.074 19.562 71.8453 19.3566 71.668C19.1606 71.4813 18.9086 71.3367 18.6006 71.234C18.2926 71.1313 17.8726 71.0147 17.3406 70.884C16.594 70.7067 15.9873 70.5293 15.5206 70.352C15.0633 70.1747 14.6666 69.8993 14.3306 69.526C14.004 69.1433 13.8406 68.63 13.8406 67.986C13.8406 67.4447 13.9853 66.9547 14.2746 66.516C14.5733 66.068 15.0166 65.7133 15.6046 65.452C16.202 65.1907 16.93 65.06 17.7886 65.06C18.386 65.06 18.974 65.1347 19.5526 65.284C20.1313 65.4333 20.6306 65.648 21.0506 65.928L20.4766 67.342C20.0473 67.09 19.5993 66.8987 19.1326 66.768C18.666 66.6373 18.2133 66.572 17.7746 66.572C17.056 66.572 16.5193 66.6933 16.1646 66.936C15.8193 67.1787 15.6466 67.5007 15.6466 67.902C15.6466 68.182 15.7446 68.4107 15.9406 68.588C16.146 68.7653 16.4026 68.9053 16.7106 69.008C17.0186 69.1107 17.4386 69.2273 17.9706 69.358C18.6986 69.526 19.296 69.7033 19.7626 69.89C20.2293 70.0673 20.626 70.3427 20.9526 70.716C21.2886 71.0893 21.4566 71.5933 21.4566 72.228C21.4566 72.7693 21.3073 73.2593 21.0086 73.698C20.7193 74.1367 20.276 74.4867 19.6786 74.748C19.0813 75.0093 18.3533 75.14 17.4946 75.14ZM25.9493 67.44C27.0506 67.44 27.8906 67.706 28.4693 68.238C29.0573 68.7607 29.3513 69.554 29.3513 70.618V75H27.6993V74.09C27.4846 74.4167 27.1766 74.6687 26.7753 74.846C26.3833 75.014 25.9073 75.098 25.3473 75.098C24.7873 75.098 24.2973 75.0047 23.8773 74.818C23.4573 74.622 23.1306 74.356 22.8973 74.02C22.6733 73.6747 22.5613 73.2873 22.5613 72.858C22.5613 72.186 22.8086 71.6493 23.3033 71.248C23.8073 70.8373 24.596 70.632 25.6693 70.632H27.6013V70.52C27.6013 69.9973 27.4426 69.596 27.1253 69.316C26.8173 69.036 26.3553 68.896 25.7393 68.896C25.3193 68.896 24.904 68.9613 24.4933 69.092C24.092 69.2227 23.7513 69.4047 23.4713 69.638L22.7853 68.364C23.1773 68.0653 23.6486 67.8367 24.1993 67.678C24.75 67.5193 25.3333 67.44 25.9493 67.44ZM25.7113 73.824C26.15 73.824 26.5373 73.726 26.8733 73.53C27.2186 73.3247 27.4613 73.0353 27.6013 72.662V71.794H25.7953C24.7873 71.794 24.2833 72.1253 24.2833 72.788C24.2833 73.1053 24.4093 73.3573 24.6613 73.544C24.9133 73.7307 25.2633 73.824 25.7113 73.824ZM33.9072 75.098C33.3006 75.098 32.7079 75.0187 32.1292 74.86C31.5506 74.7013 31.0886 74.5007 30.7432 74.258L31.4152 72.928C31.7512 73.152 32.1526 73.334 32.6192 73.474C33.0952 73.6047 33.5619 73.67 34.0192 73.67C35.0646 73.67 35.5872 73.3947 35.5872 72.844C35.5872 72.5827 35.4519 72.4007 35.1812 72.298C34.9199 72.1953 34.4952 72.0973 33.9072 72.004C33.2912 71.9107 32.7872 71.8033 32.3952 71.682C32.0126 71.5607 31.6766 71.3507 31.3872 71.052C31.1072 70.744 30.9672 70.3193 30.9672 69.778C30.9672 69.0687 31.2612 68.504 31.8492 68.084C32.4466 67.6547 33.2492 67.44 34.2572 67.44C34.7706 67.44 35.2839 67.5007 35.7972 67.622C36.3106 67.734 36.7306 67.888 37.0572 68.084L36.3852 69.414C35.7506 69.0407 35.0366 68.854 34.2432 68.854C33.7299 68.854 33.3379 68.9333 33.0672 69.092C32.8059 69.2413 32.6752 69.442 32.6752 69.694C32.6752 69.974 32.8152 70.1747 33.0952 70.296C33.3846 70.408 33.8279 70.5153 34.4252 70.618C35.0226 70.7113 35.5126 70.8187 35.8952 70.94C36.2779 71.0613 36.6046 71.2667 36.8752 71.556C37.1552 71.8453 37.2952 72.256 37.2952 72.788C37.2952 73.488 36.9919 74.048 36.3852 74.468C35.7786 74.888 34.9526 75.098 33.9072 75.098ZM41.1123 75.098C40.5056 75.098 39.913 75.0187 39.3343 74.86C38.7556 74.7013 38.2936 74.5007 37.9483 74.258L38.6203 72.928C38.9563 73.152 39.3576 73.334 39.8243 73.474C40.3003 73.6047 40.767 73.67 41.2243 73.67C42.2696 73.67 42.7923 73.3947 42.7923 72.844C42.7923 72.5827 42.657 72.4007 42.3863 72.298C42.125 72.1953 41.7003 72.0973 41.1123 72.004C40.4963 71.9107 39.9923 71.8033 39.6003 71.682C39.2176 71.5607 38.8816 71.3507 38.5923 71.052C38.3123 70.744 38.1723 70.3193 38.1723 69.778C38.1723 69.0687 38.4663 68.504 39.0543 68.084C39.6516 67.6547 40.4543 67.44 41.4623 67.44C41.9756 67.44 42.489 67.5007 43.0023 67.622C43.5156 67.734 43.9356 67.888 44.2623 68.084L43.5903 69.414C42.9556 69.0407 42.2416 68.854 41.4483 68.854C40.935 68.854 40.543 68.9333 40.2723 69.092C40.011 69.2413 39.8803 69.442 39.8803 69.694C39.8803 69.974 40.0203 70.1747 40.3003 70.296C40.5896 70.408 41.033 70.5153 41.6303 70.618C42.2276 70.7113 42.7176 70.8187 43.1003 70.94C43.483 71.0613 43.8096 71.2667 44.0803 71.556C44.3603 71.8453 44.5003 72.256 44.5003 72.788C44.5003 73.488 44.197 74.048 43.5903 74.468C42.9836 74.888 42.1576 75.098 41.1123 75.098Z" fill="#545454"/>
<path d="M22.2191 31.4767C21.6742 31.8742 20.8532 32.5184 20.218 33.2189C19.1753 34.3678 18.9571 35.9614 19.5072 36.3337C20.016 36.6778 21.2039 36.2683 22.0541 35.1863C22.9464 34.0505 23.3144 32.6105 22.9343 30.9759C22.8897 31.007 22.8459 31.0381 22.8029 31.0671L22.8038 31.0694L22.7461 31.1074C22.5243 31.2619 22.343 31.3896 22.2191 31.4767ZM37.5321 30.9609C37.2235 31.7436 37.208 31.9953 37.3018 32.0738C37.7496 31.8861 38.4906 31.4337 38.4965 30.2212C38.4974 30.0397 38.4631 29.845 38.408 29.6413C37.9292 30.1359 37.6532 30.6538 37.5321 30.9609ZM42.338 28.5948C41.1415 28.4321 40.2079 28.6279 39.4833 28.9801C39.6175 29.3875 39.7206 29.8118 39.7352 30.2393C39.7688 31.1776 39.2152 31.872 38.6383 32.3679C38.3014 32.6569 37.9429 32.8495 37.642 32.9659C37.4014 33.0841 37.0816 33.2065 36.8546 33.1525C36.3542 33.0338 36.0878 32.5154 36.4282 31.3713C36.6121 30.7522 37.1425 29.81 37.9987 28.9981C37.8036 28.5295 37.5861 28.0521 37.4752 27.6132C37.2568 26.7483 37.1908 26.2255 37.1908 26.2255C37.1908 26.2255 36.4851 27.9326 35.5746 29.4849C35.5221 29.5751 35.4698 29.6634 35.4173 29.7516C35.5961 30.2365 35.737 30.7492 35.7561 31.266C35.7896 32.2043 35.4414 32.9138 34.8637 33.4084C34.5509 33.6775 34.2173 33.8633 33.931 33.9816C33.7479 34.0747 33.3756 34.2282 32.8462 34.2695C32.5566 34.2926 32.278 34.2717 32.1225 34.1341C31.9084 33.9455 31.8827 33.7125 31.9935 33.3945C32.0873 33.1243 32.7886 32.1903 33.3767 31.3724C33.5333 31.1535 33.6852 30.93 33.8322 30.7021L33.8288 30.6931C33.8288 30.6931 33.9353 30.5327 34.1082 30.2527C33.8932 29.7126 33.6208 29.1507 33.4927 28.641C33.2743 27.776 33.2082 27.2532 33.2082 27.2532C33.2082 27.2532 32.4929 29.3927 31.7477 31.1005C31.171 32.4232 30.7858 33.2248 30.6122 33.5762L30.6105 33.5903C30.6105 33.5903 30.5846 33.6415 30.5399 33.7218L30.5065 33.7869L30.5056 33.7809C30.3121 34.1142 29.878 34.7671 29.4466 34.7671C28.262 34.7671 28.6969 31.9604 28.6969 31.9604C28.6969 31.9604 28.3506 33.0002 27.9603 33.8923C27.6423 34.6196 27.3527 35.236 26.7191 35.236C26.5369 35.236 26.248 35.2299 26.0082 34.9639C25.4641 34.3608 25.048 32.8294 25.1296 31.6434C25.1992 30.6349 25.3325 29.9363 25.5147 29.3536C25.1505 29.5848 24.7894 29.8227 24.4316 30.0672L23.8436 30.4714L23.8626 30.5116C24.349 31.6095 24.4789 34.0148 23.4181 35.861C22.3574 37.7084 20.3829 38.8323 18.4592 38.2082C17.8384 38.0066 16.9007 36.5084 17.7095 34.4201C18.423 32.5785 21.2743 30.8377 22.0257 30.4032L22.2319 30.2706C20.7338 28.7414 16.9927 26.6783 16.4684 23.5093C16.3205 22.6172 16.679 20.4837 18.9242 18.0314C20.8127 15.9691 23.4396 14.3896 25.8664 13.3831C29.9433 11.6924 34.2509 12.6896 34.9136 15.7223C35.5652 18.7047 33.3475 22.2721 30.5073 23.5545C27.9715 24.6994 25.8749 24.5179 25.0136 24.1878C24.0345 23.8125 23.4603 23.0588 23.3202 22.6333C23.2652 22.4667 23.1705 22.1868 23.3202 22.0906C23.4121 22.0312 23.449 22.0454 23.6949 22.3625C23.9288 22.6635 24.8691 23.4713 26.6554 23.2375C31.3429 22.6244 34.1665 18.3725 33.2743 16.0845C32.6494 14.4831 29.0365 13.7605 24.5227 16.3866C19.0127 19.5916 18.7136 22.2338 18.6664 23.2374C18.5373 25.998 21.5846 27.4501 23.2334 29.503L23.2969 29.5844C23.6055 29.3857 23.9314 29.176 24.2511 28.9713C24.9108 28.5485 25.571 28.1266 26.2316 27.7056C26.812 26.7216 27.9895 25.6357 28.8396 25.6357C30.1987 25.6357 29.7319 27.9145 29.7319 27.9145C29.7319 27.9145 29.7595 27.8103 29.7964 27.8092C29.835 27.8081 29.9847 27.509 30.4042 27.6876C30.8357 27.8724 30.7376 28.2257 30.7403 28.2618C30.7455 28.3318 30.2305 30.3578 30.0166 31.6575C29.9141 32.2776 29.9734 32.7293 30.0037 32.7293C30.0457 32.7293 30.1318 32.5716 30.2117 32.4022L30.2099 32.3971C30.2099 32.3971 30.27 32.2686 30.3707 32.038L30.3905 31.9897L30.3913 31.9919C30.5579 31.6083 30.7173 31.2206 30.8692 30.8288C31.2466 29.8585 32.6863 26.1123 32.8084 25.698C32.9304 25.2836 32.9941 24.855 33.0543 24.6713C33.1136 24.4876 33.6225 24.3492 34.2173 24.3542C34.8121 24.3593 34.8725 24.6554 34.8766 24.7165C34.8809 24.7776 34.5938 25.5997 34.5276 26.1806C34.4623 26.7617 34.5251 27.0515 34.5793 27.5394C34.6145 27.8583 34.7855 28.2629 34.9877 28.7213C35.6031 27.5471 36.6861 25.3015 36.7901 24.6724C36.8614 24.242 36.9757 23.8295 37.036 23.6456C37.0961 23.462 37.6042 23.3236 38.1989 23.3285C38.7938 23.3337 38.8539 23.6297 38.8582 23.6908C38.8626 23.7521 38.5745 24.5741 38.5093 25.1551C38.4439 25.7351 38.5068 26.026 38.5608 26.5138C38.6073 26.9311 38.884 27.492 39.1584 28.1301C39.907 27.6997 40.7881 27.4108 41.8197 27.4048C42.2468 27.4018 42.7429 27.4519 42.9991 27.5451V17.9451C42.9991 17.2678 42.7015 16.6435 42.1988 16.3054L28.7753 7.25367C28.5294 7.0875 28.2502 7 27.966 7C27.6818 7 27.4027 7.0875 27.1567 7.25367L13.7703 16.3011C13.2682 16.6393 13 17.2644 13 17.9406C13 17.9406 13 35.3755 13 36.0518C13 36.728 13.7711 37.6913 13.7711 37.6913L27.1791 46.7455C27.4238 46.9122 27.702 47 27.9854 47C28.2687 47 28.5469 46.9122 28.7916 46.7455L42.2057 37.6912C42.7076 37.3521 43 36.7277 43 36.0516V28.7322C42.8297 28.6737 42.5805 28.6278 42.338 28.5948ZM27.8968 27.6463C27.6088 28.0225 27.118 28.993 26.8885 29.8051C26.432 31.4174 26.6297 33.0562 26.9529 33.1547C27.3303 33.2699 27.9493 31.1146 28.2456 30.2715C28.4314 29.7435 29.1535 27.4006 28.9953 27.0876C28.8718 26.8428 28.3601 27.0403 27.8968 27.6463ZM33.119 33.0811C33.119 33.0811 33.0279 33.1817 33.0673 33.2096C33.1206 33.2468 33.2358 33.1987 33.3613 33.1223C33.7164 32.8617 34.5132 32.2113 34.5149 31.249C34.5149 31.2208 34.514 31.1937 34.5123 31.1646C34.3477 31.4166 34.1803 31.6661 34.0103 31.9131C33.7593 32.2775 33.119 33.0811 33.119 33.0811Z" fill="#8CC84B"/>
</svg>
